<svg width="25" height="25" viewBox="0 0 25 25" fill="none" xmlns="http://www.w3.org/2000/svg">
<path d="M22.9167 11.4584V13.5417C22.9167 17.47 22.9167 19.4343 21.6962 20.6546C20.6814 21.6696 19.152 21.8405 16.4062 21.8692V3.13086C19.152 3.15963 20.6814 3.33049 21.6962 4.34542C22.9167 5.56582 22.9167 7.52999 22.9167 11.4584Z" fill="#C7B1F1"/>
<path fill-rule="evenodd" clip-rule="evenodd" d="M10.4166 3.125H14.5833H14.8437V21.875H14.5833H10.4166C6.48821 21.875 4.52403 21.875 3.30364 20.6546C2.08325 19.4343 2.08325 17.47 2.08325 13.5417V11.4583C2.08325 7.52996 2.08325 5.56578 3.30364 4.34539C4.52403 3.125 6.48821 3.125 10.4166 3.125ZM4.94784 10.4167C4.94784 9.9852 5.29762 9.63542 5.72909 9.63542H11.9791C12.4105 9.63542 12.7603 9.9852 12.7603 10.4167C12.7603 10.8481 12.4105 11.1979 11.9791 11.1979H5.72909C5.29762 11.1979 4.94784 10.8481 4.94784 10.4167ZM5.9895 14.5833C5.9895 14.1519 6.33928 13.8021 6.77075 13.8021H10.9374C11.3689 13.8021 11.7187 14.1519 11.7187 14.5833C11.7187 15.0148 11.3689 15.3646 10.9374 15.3646H6.77075C6.33928 15.3646 5.9895 15.0148 5.9895 14.5833Z" fill="#C7B1F1"/>
</svg>
