<svg width="25" height="25" viewBox="0 0 25 25" fill="none" xmlns="http://www.w3.org/2000/svg">
<path d="M22.9167 11.4584V13.5417C22.9167 17.47 22.9167 19.4343 21.6962 20.6546C20.6814 21.6696 19.152 21.8405 16.4062 21.8692V3.13086C19.152 3.15963 20.6814 3.33049 21.6962 4.34542C22.9167 5.56582 22.9167 7.52999 22.9167 11.4584Z" fill="#069BE7"/>
<path fill-rule="evenodd" clip-rule="evenodd" d="M10.4168 3.125H14.5835H14.8439V21.875H14.5835H10.4168C6.48845 21.875 4.52428 21.875 3.30388 20.6546C2.0835 19.4343 2.0835 17.47 2.0835 13.5417V11.4583C2.0835 7.52996 2.0835 5.56578 3.30388 4.34539C4.52428 3.125 6.48845 3.125 10.4168 3.125ZM4.94808 10.4167C4.94808 9.9852 5.29786 9.63542 5.72933 9.63542H11.9793C12.4108 9.63542 12.7606 9.9852 12.7606 10.4167C12.7606 10.8481 12.4108 11.1979 11.9793 11.1979H5.72933C5.29786 11.1979 4.94808 10.8481 4.94808 10.4167ZM5.98975 14.5833C5.98975 14.1519 6.33953 13.8021 6.771 13.8021H10.9377C11.3691 13.8021 11.7189 14.1519 11.7189 14.5833C11.7189 15.0148 11.3691 15.3646 10.9377 15.3646H6.771C6.33953 15.3646 5.98975 15.0148 5.98975 14.5833Z" fill="#300C60"/>
</svg>
