<svg width="19" height="19" viewBox="0 0 19 19" fill="none" xmlns="http://www.w3.org/2000/svg">
<path fill-rule="evenodd" clip-rule="evenodd" d="M18.3542 6.84122V11.9087C18.3542 14.2977 18.3542 15.4921 17.6026 16.2343C16.9197 16.9084 15.8586 16.9701 13.8559 16.9758C13.9617 16.2733 13.9838 15.4342 13.9894 14.4468C13.9917 14.027 13.6489 13.6848 13.2237 13.6824C12.7985 13.6801 12.4519 14.0185 12.4495 14.4383C12.4433 15.5466 12.4142 16.3322 12.3032 16.9283C12.1964 17.5028 12.0247 17.8353 11.7748 18.0821C11.4907 18.3626 11.0919 18.5455 10.3385 18.6454C9.5631 18.7484 8.53539 18.75 7.06185 18.75H6.03529C4.56185 18.75 3.53414 18.7484 2.75873 18.6454C2.00539 18.5455 1.60654 18.3626 1.32248 18.0821C1.03831 17.8016 0.853104 17.4077 0.751852 16.6641C0.647581 15.8985 0.645916 14.8839 0.645916 13.4291V5.32095C0.645916 3.86614 0.647581 2.85149 0.751852 2.08594C0.853104 1.34224 1.03831 0.948417 1.32248 0.667917C1.60654 0.387417 2.00539 0.204531 2.75873 0.104542C3.53414 0.00161449 4.56185 0 6.03529 0H7.06185C8.53539 0 9.5631 0.00161449 10.3385 0.104542C11.0919 0.204531 11.4907 0.387417 11.7748 0.667917C12.0247 0.914656 12.1964 1.24717 12.3032 1.82164C12.4142 2.41783 12.4433 3.20339 12.4495 4.31167C12.4519 4.73147 12.7985 5.0699 13.2237 5.06755C13.6489 5.06522 13.9917 4.72301 13.9894 4.3032C13.9838 3.31585 13.9617 2.47665 13.8559 1.77422C15.8586 1.77986 16.9197 1.84155 17.6026 2.51578C18.3542 3.25791 18.3542 4.45234 18.3542 6.84122ZM15.819 9.9125C16.1197 9.61562 16.1197 9.13437 15.819 8.8375L13.7659 6.81048C13.4652 6.51363 12.9777 6.51363 12.6771 6.81048C12.3764 7.10733 12.3764 7.58865 12.6771 7.88552L13.4158 8.6149H6.0356C5.61039 8.6149 5.2656 8.95521 5.2656 9.375C5.2656 9.79479 5.61039 10.1351 6.0356 10.1351H13.4158L12.6771 10.8645C12.3764 11.1614 12.3764 11.6427 12.6771 11.9395C12.9777 12.2364 13.4652 12.2364 13.7659 11.9395L15.819 9.9125Z" fill="#C7B1F1"/>
</svg>
