<svg width="19" height="19" viewBox="0 0 19 19" fill="none" xmlns="http://www.w3.org/2000/svg">
<path fill-rule="evenodd" clip-rule="evenodd" d="M18.354 6.96622V12.0337C18.354 14.4227 18.354 15.6171 17.6023 16.3593C16.9194 17.0334 15.8584 17.0951 13.8556 17.1008C13.9614 16.3983 13.9836 15.5592 13.9891 14.5718C13.9915 14.152 13.6487 13.8098 13.2235 13.8074C12.7983 13.8051 12.4517 14.1435 12.4493 14.5633C12.4431 15.6716 12.4139 16.4572 12.303 17.0533C12.1961 17.6278 12.0245 17.9603 11.7746 18.2071C11.4905 18.4876 11.0916 18.6705 10.3383 18.7704C9.56286 18.8734 8.53515 18.875 7.06161 18.875H6.03505C4.56161 18.875 3.5339 18.8734 2.75848 18.7704C2.00515 18.6705 1.6063 18.4876 1.32223 18.2071C1.03807 17.9266 0.852859 17.5327 0.751608 16.7891C0.647337 16.0235 0.645672 15.0089 0.645672 13.5541V5.44595C0.645672 3.99114 0.647337 2.97649 0.751608 2.21094C0.852859 1.46724 1.03807 1.07342 1.32223 0.792917C1.6063 0.512417 2.00515 0.329531 2.75848 0.229542C3.5339 0.126614 4.56161 0.125 6.03505 0.125H7.06161C8.53515 0.125 9.56286 0.126614 10.3383 0.229542C11.0916 0.329531 11.4905 0.512417 11.7746 0.792917C12.0245 1.03966 12.1961 1.37217 12.303 1.94664C12.4139 2.54283 12.4431 3.32839 12.4493 4.43667C12.4517 4.85647 12.7983 5.1949 13.2235 5.19255C13.6487 5.19022 13.9915 4.84801 13.9891 4.4282C13.9836 3.44085 13.9614 2.60165 13.8556 1.89922C15.8584 1.90486 16.9194 1.96655 17.6023 2.64078C18.354 3.38291 18.354 4.57734 18.354 6.96622ZM15.8187 10.0375C16.1194 9.74062 16.1194 9.25937 15.8187 8.9625L13.7656 6.93548C13.465 6.63863 12.9775 6.63863 12.6768 6.93548C12.3761 7.23233 12.3761 7.71365 12.6768 8.01052L13.4156 8.7399H6.03536C5.61015 8.7399 5.26536 9.08021 5.26536 9.5C5.26536 9.91979 5.61015 10.2601 6.03536 10.2601H13.4156L12.6768 10.9895C12.3761 11.2864 12.3761 11.7677 12.6768 12.0645C12.9775 12.3614 13.465 12.3614 13.7656 12.0645L15.8187 10.0375Z" fill="#300C60"/>
</svg>
