<svg width="19" height="19" viewBox="0 0 19 19" fill="none" xmlns="http://www.w3.org/2000/svg">
<path fill-rule="evenodd" clip-rule="evenodd" d="M0.645752 6.96622V12.0337C0.645752 14.4227 0.645752 15.6171 1.39743 16.3593C2.08032 17.0334 3.14136 17.0951 5.14415 17.1008C5.03831 16.3983 5.0162 15.5592 5.01064 14.5718C5.00827 14.152 5.35105 13.8098 5.77626 13.8074C6.20146 13.8051 6.54809 14.1435 6.55045 14.5633C6.5567 15.6716 6.58585 16.4572 6.69677 17.0533C6.80365 17.6278 6.97527 17.9603 7.22519 18.2071C7.50929 18.4876 7.90815 18.6705 8.66148 18.7704C9.4369 18.8734 10.4646 18.875 11.9381 18.875H12.9647C14.4381 18.875 15.4659 18.8734 16.2413 18.7704C16.9946 18.6705 17.3935 18.4876 17.6775 18.2071C17.9617 17.9266 18.1469 17.5327 18.2481 16.7891C18.3524 16.0235 18.3541 15.0089 18.3541 13.5541V5.44595C18.3541 3.99114 18.3524 2.97649 18.2481 2.21094C18.1469 1.46724 17.9617 1.07342 17.6775 0.792917C17.3935 0.512417 16.9946 0.329531 16.2413 0.229542C15.4659 0.126614 14.4381 0.125 12.9647 0.125H11.9381C10.4646 0.125 9.4369 0.126614 8.66148 0.229542C7.90815 0.329531 7.50929 0.512417 7.22519 0.792917C6.97527 1.03966 6.80365 1.37217 6.69677 1.94664C6.58585 2.54283 6.5567 3.32839 6.55045 4.43667C6.54809 4.85647 6.20146 5.1949 5.77626 5.19255C5.35105 5.19022 5.00827 4.84801 5.01064 4.4282C5.0162 3.44085 5.03831 2.60165 5.14415 1.89922C3.14136 1.90486 2.08032 1.96655 1.39743 2.64078C0.645752 3.38291 0.645752 4.57734 0.645752 6.96622ZM3.18101 10.0375C2.88034 9.74062 2.88034 9.25937 3.18101 8.9625L5.23413 6.93548C5.53479 6.63863 6.02228 6.63863 6.32295 6.93548C6.62363 7.23233 6.62363 7.71365 6.32295 8.01052L5.58417 8.7399H12.9644C13.3896 8.7399 13.7344 9.08021 13.7344 9.5C13.7344 9.91979 13.3896 10.2601 12.9644 10.2601H5.58417L6.32295 10.9895C6.62363 11.2864 6.62363 11.7677 6.32295 12.0645C6.02228 12.3614 5.53479 12.3614 5.23413 12.0645L3.18101 10.0375Z" fill="#300C60"/>
</svg>
